<svg width="515" height="104" viewBox="0 0 515 104" fill="none" xmlns="http://www.w3.org/2000/svg">
    <path d="M67.4516 17.7314H52.2533L34.3048 47.4767L16.4287 17.7314H0L25.9095 60.7933V84.6764H41.3974V61.0104L67.4516 17.7314ZM91.6242 85.4725C107.981 85.4725 119.85 74.4718 119.85 58.984C119.85 43.4962 107.981 32.4955 91.6242 32.4955C75.2679 32.4955 63.3264 43.4962 63.3264 58.984C63.3264 74.4718 75.2679 85.4725 91.6242 85.4725ZM91.6242 73.2415C84.1698 73.2415 78.4523 67.8859 78.4523 58.984C78.4523 50.0821 84.1698 44.7265 91.6242 44.7265C99.0787 44.7265 104.724 50.0821 104.724 58.984C104.724 67.8859 99.0787 73.2415 91.6242 73.2415ZM166.675 33.2916V58.7669C166.675 68.2477 161.681 72.6625 154.806 72.6625C148.22 72.6625 144.384 68.8267 144.384 60.2143V33.2916H129.475V62.3855C129.475 78.2352 138.594 85.5449 151.477 85.5449C157.773 85.5449 163.563 83.1566 167.471 78.6694V84.8211H181.656V33.2916H166.675ZM196.565 84.7488H226.962C248.891 84.7488 263.872 71.5769 263.872 51.2401C263.872 30.9033 248.891 17.7314 226.962 17.7314H196.565V84.7488ZM212.053 72.0111V30.469H226.238C239.555 30.469 248.239 38.4301 248.239 51.2401C248.239 64.0501 239.555 72.0111 226.238 72.0111H212.053ZM274.511 84.7488H289.42V33.2916H274.511V84.7488ZM342.252 33.2916V39.8775C338.344 34.8838 332.409 32.4955 325.244 32.4955C310.987 32.4955 299.552 42.3382 299.552 57.3918C299.552 72.4454 311.059 82.2881 325.244 82.2881C331.975 82.2881 337.548 80.1893 341.528 75.8469V78.0181C341.528 87.2818 336.969 92.0584 326.402 92.0584C319.816 92.0584 312.651 89.7425 308.237 86.1962L302.302 96.9074C308.309 101.612 317.79 104 327.56 104C346.088 104 356.437 95.1705 356.437 76.064V33.2916H342.252ZM328.139 69.9847C320.323 69.9847 314.533 64.9186 314.533 57.3918C314.533 49.865 320.251 44.7989 328.139 44.7989C336.028 44.7989 341.601 49.865 341.601 57.3918C341.601 64.9186 336.028 69.9847 328.139 69.9847ZM370.26 84.7488H385.169V33.2916H370.26V84.7488ZM428.231 71.7216C426.494 73.0243 424.395 73.6757 422.224 73.6033C418.171 73.6033 415.783 71.215 415.783 66.8003V45.8845H428.593V34.3772H415.783V21.8566H400.874V34.3772H392.913V45.8845H400.874V67.0174C400.874 79.2484 407.967 85.4725 420.125 85.4725C424.685 85.4725 429.244 84.3869 432.284 82.2157L428.231 71.7216ZM461.378 32.4955C453.127 32.4955 444.805 34.6667 439.159 38.7195L444.515 49.1413C448.278 46.174 453.924 44.3646 459.352 44.3646C467.385 44.3646 471.221 48.128 471.221 54.4969H459.352C443.647 54.4969 437.278 60.7933 437.278 69.9123C437.278 78.8142 444.443 85.4725 456.529 85.4725C464.056 85.4725 469.411 83.0118 472.234 78.3076V84.7488H486.202V55.3653C486.129 39.7328 477.083 32.4955 461.378 32.4955ZM460.22 75.4127C454.937 75.4127 451.825 72.952 451.825 69.1886C451.825 65.7147 453.996 63.1816 461.016 63.1816H471.221V68.4648C469.556 73.1691 465.214 75.4127 460.22 75.4127ZM499.663 84.7488H514.572V13.7509H499.663V84.7488Z" fill="white"/>
    <path d="M282.255 0H377.787C382.564 0 386.472 3.90814 386.472 8.68476C386.472 13.4614 382.564 17.3695 377.787 17.3695H282.255C277.478 17.3695 273.57 13.4614 273.57 8.68476C273.57 3.90814 277.478 0 282.255 0Z" fill="#A8161A"/>
</svg>
