<svg width="47" height="47" viewBox="0 0 47 47" fill="none" xmlns="http://www.w3.org/2000/svg">
    <path d="M41.774 13.3325C41.0521 13.3325 40.4655 13.9183 40.4655 14.6409V38.5328C40.4655 41.0578 38.411 43.1121 35.8862 43.1121H7.19618C4.6716 43.1121 2.61689 41.0578 2.61689 38.5328V9.84265C2.61689 7.31752 4.6716 5.26325 7.19618 5.26325H35.8862C36.6093 5.26325 37.1949 4.67735 37.1949 3.95481C37.1949 3.23215 36.6097 2.64636 35.8862 2.64636H7.19618C3.22895 2.64647 0 5.87465 0 9.84254V38.5327C0 42.5007 3.22895 45.7289 7.19618 45.7289H35.8862C39.8549 45.7289 43.0826 42.5007 43.0826 38.5327V14.6408C43.0824 13.9184 42.4973 13.3325 41.774 13.3325Z" fill="url(#paint0_linear)"/>
    <path d="M46.6167 1.65469C46.1057 1.14359 45.2762 1.14359 44.7668 1.65469L18.4759 27.9442L11.9047 21.3736C11.3937 20.8626 10.5655 20.8626 10.0545 21.3736C9.54355 21.8847 9.54355 22.7129 10.0545 23.2237L17.5521 30.7194C17.8078 30.9752 18.1426 31.1028 18.4773 31.1028C18.812 31.1028 19.1469 30.9752 19.4024 30.7194C19.4024 30.7188 19.4024 30.7181 19.4037 30.7174L46.6167 3.50471C47.1278 2.99405 47.1278 2.16534 46.6167 1.65469Z" fill="url(#paint1_linear)"/>
    <defs>
        <linearGradient id="paint0_linear" x1="0.00435717" y1="24.1876" x2="43.0741" y2="24.1876" gradientUnits="userSpaceOnUse">
            <stop stop-color="#FF007E"/>
            <stop offset="1" stop-color="#A8161A"/>
        </linearGradient>
        <linearGradient id="paint1_linear" x1="9.67507" y1="16.1871" x2="46.9926" y2="16.1871" gradientUnits="userSpaceOnUse">
            <stop stop-color="#FF007E"/>
            <stop offset="1" stop-color="#A8161A"/>
        </linearGradient>
    </defs>
</svg>
