<svg width="78" height="100" viewBox="0 0 78 100" fill="none" xmlns="http://www.w3.org/2000/svg">
    <path d="M72.3334 0H5.66656C2.90641 0.00292969 0.669495 2.23984 0.666565 5V95C0.669495 97.7602 2.90641 99.9971 5.66656 100H72.3332C75.0933 99.9971 77.3302 97.7602 77.3332 95V5C77.3302 2.23984 75.0935 0.00292969 72.3334 0ZM74 95C73.999 95.9201 73.2535 96.6658 72.3334 96.6666H5.66656C4.74645 96.6656 4.00074 95.9201 3.99996 95V5C4.00094 4.07988 4.74645 3.33418 5.66656 3.3334H72.3332C73.2533 3.33437 73.999 4.07988 73.9998 5V95H74Z" fill="url(#paint0_linear)"/>
    <path d="M9.08319 33.7455C9.17186 34.0461 9.32987 34.3217 9.54452 34.55C9.56014 34.5645 9.5662 34.5848 9.58261 34.5988C9.66366 34.6572 9.75018 34.7076 9.84061 34.7498C9.90975 34.798 9.9828 34.8406 10.0588 34.8773C10.2517 34.9561 10.458 34.9977 10.6664 35H30.6664C30.8748 34.9977 31.081 34.9559 31.274 34.8773C31.4328 34.7846 31.5916 34.6916 31.7504 34.5988C31.7668 34.5848 31.7728 34.5645 31.7885 34.55C31.8734 34.4631 31.9484 34.3672 32.0123 34.2637C32.1461 34.1211 32.2295 33.9389 32.2502 33.7445C32.2863 33.6309 32.3099 33.5135 32.3207 33.3947C32.3215 33.3732 32.3332 33.3551 32.3332 33.3332V10C32.3332 9.97832 32.3215 9.96016 32.3207 9.93848C32.3099 9.81973 32.2863 9.70234 32.2502 9.58867C32.2326 9.49258 32.2066 9.39824 32.1724 9.30684C32.126 9.22324 32.0724 9.14395 32.0125 9.06953C31.9488 8.96602 31.8736 8.87012 31.7887 8.7832C31.773 8.76875 31.767 8.74844 31.7506 8.73438C31.6873 8.69277 31.6213 8.65586 31.5527 8.62383C31.3682 8.47793 31.1428 8.39336 30.9078 8.38184C30.8289 8.35938 30.7482 8.34297 30.6666 8.33301H10.6666C10.5846 8.34297 10.5035 8.35918 10.424 8.38203C10.1891 8.39414 9.96385 8.47891 9.77928 8.6248C9.71112 8.65645 9.6455 8.69316 9.58261 8.73418C9.5662 8.74824 9.56014 8.76855 9.54452 8.78301C9.45975 8.86973 9.38475 8.96562 9.32108 9.06894C9.26092 9.14355 9.20721 9.22305 9.16073 9.30684C9.12675 9.39805 9.10077 9.49199 9.08319 9.5877C9.04686 9.70176 9.02323 9.81934 9.01249 9.93848C9.01171 9.95996 9.00018 9.97812 9.00018 10V33.3334C9.00018 33.3551 9.0119 33.3732 9.01268 33.3949C9.02323 33.5139 9.04686 33.6314 9.08319 33.7455ZM14.2896 31.6666L20.6666 24.2268L27.0435 31.6666H14.2896ZM29 28.8287L22.8611 21.6668L29 14.5047V28.8287ZM27.0435 11.6666L20.6666 19.1064L14.2896 11.6666H27.0435ZM12.3334 14.5047L18.4723 21.6666L12.3334 28.8285V14.5047Z" fill="url(#paint1_linear)"/>
    <path d="M67.3334 16.6666H37.3334C36.4129 16.6666 35.6668 17.4129 35.6668 18.3332C35.6668 19.2537 36.4129 19.9998 37.3334 19.9998H67.3334C68.2539 19.9998 69 19.2535 69 18.3332C69 17.4129 68.2537 16.6666 67.3334 16.6666Z" fill="url(#paint2_linear)"/>
    <path d="M67.3334 25H37.3334C36.4129 25 35.6668 25.7461 35.6668 26.6666C35.6668 27.5871 36.4129 28.3332 37.3334 28.3332H67.3334C68.2539 28.3332 69 27.5871 69 26.6666C69 25.7461 68.2537 25 67.3334 25Z" fill="url(#paint3_linear)"/>
    <path d="M67.3334 40H10.6666C9.74606 40 8.99997 40.7463 8.99997 41.6666C8.99997 42.5871 9.74626 43.3332 10.6666 43.3332H67.3332C68.2537 43.3332 68.9998 42.5869 68.9998 41.6666C69 40.7463 68.2537 40 67.3334 40Z" fill="url(#paint4_linear)"/>
    <path d="M67.3334 48.3334H10.6666C9.74606 48.3334 8.99997 49.0795 8.99997 50C8.99997 50.9205 9.74626 51.6666 10.6666 51.6666H67.3332C68.2537 51.6666 68.9998 50.9205 68.9998 50C68.9998 49.0795 68.2537 48.3334 67.3334 48.3334Z" fill="url(#paint5_linear)"/>
    <path d="M67.3334 56.6666H10.6666C9.74606 56.6666 8.99997 57.4127 8.99997 58.3332C8.99997 59.2537 9.74626 59.9998 10.6666 59.9998H67.3332C68.2537 59.9998 68.9998 59.2537 68.9998 58.3332C68.9998 57.4127 68.2537 56.6666 67.3334 56.6666Z" fill="url(#paint6_linear)"/>
    <path d="M67.3334 64.9999H10.6666C9.74606 64.9999 8.99997 65.7462 8.99997 66.6665C8.99997 67.5869 9.74626 68.3331 10.6666 68.3331H67.3332C68.2537 68.3331 68.9998 67.5871 68.9998 66.6665C68.9998 65.746 68.2537 64.9999 67.3334 64.9999Z" fill="url(#paint7_linear)"/>
    <path d="M68.8929 74.4687C68.8535 74.3609 68.8025 74.2576 68.7408 74.1607C68.6449 73.9715 68.5011 73.8107 68.3238 73.6945C68.1652 73.5564 67.9734 73.4621 67.7672 73.4209C67.6652 73.3896 67.5605 73.3683 67.4545 73.3578C67.4123 73.3547 67.3763 73.3334 67.3332 73.3334H10.6666C10.6232 73.3334 10.5871 73.3547 10.5445 73.358C10.0043 73.3799 9.51559 73.6851 9.25915 74.1609C9.19762 74.2576 9.14665 74.3607 9.1072 74.4683C9.09411 74.5062 9.06579 74.534 9.05524 74.5736C9.05661 74.7175 9.03806 74.8611 8.99997 75V90C9.03806 90.1388 9.0568 90.2824 9.05524 90.4263C9.06696 90.4709 9.09528 90.5051 9.11052 90.5476C9.13806 90.6226 9.17106 90.6955 9.20954 90.7654C9.35798 91.0634 9.59919 91.305 9.89684 91.4541C9.95231 91.4883 10.0099 91.5189 10.0693 91.5459C10.2586 91.623 10.4605 91.6642 10.665 91.6672L10.6713 91.6664H67.3287L67.3349 91.6672C67.5392 91.6642 67.7414 91.623 67.9304 91.5459C67.9898 91.5187 68.0476 91.4881 68.1033 91.4539C68.2209 91.3937 68.3308 91.3197 68.4306 91.2332C68.5756 91.0984 68.697 90.9404 68.7902 90.7656C68.8289 90.6953 68.8621 90.6222 68.8896 90.547C68.9047 90.5045 68.9328 90.4703 68.9447 90.4261C68.9433 90.2822 68.9619 90.1386 69.0002 89.9998V75C68.9621 74.8611 68.9433 74.7175 68.9449 74.5736C68.9342 74.5342 68.9058 74.5066 68.8929 74.4687ZM54.5232 76.6666L39 80.7758L23.4767 76.6666H54.5232ZM12.3334 77.1654L32.4863 82.5L12.3334 87.8345V77.1654ZM23.4767 88.3334L39 84.2242L54.5232 88.3332H23.4767V88.3334ZM65.6666 87.8345L45.5136 82.5L65.6666 77.1654V87.8345Z" fill="url(#paint8_linear)"/>
    <defs>
        <linearGradient id="paint0_linear" x1="0.666565" y1="50" x2="77.3332" y2="50" gradientUnits="userSpaceOnUse">
            <stop stop-color="#FF007E"/>
            <stop offset="1" stop-color="#A8161A"/>
        </linearGradient>
        <linearGradient id="paint1_linear" x1="9.00018" y1="21.6665" x2="32.3332" y2="21.6665" gradientUnits="userSpaceOnUse">
            <stop stop-color="#FF007E"/>
            <stop offset="1" stop-color="#A8161A"/>
        </linearGradient>
        <linearGradient id="paint2_linear" x1="35.6668" y1="18.3332" x2="69" y2="18.3332" gradientUnits="userSpaceOnUse">
            <stop stop-color="#FF007E"/>
            <stop offset="1" stop-color="#A8161A"/>
        </linearGradient>
        <linearGradient id="paint3_linear" x1="35.6668" y1="26.6666" x2="69" y2="26.6666" gradientUnits="userSpaceOnUse">
            <stop stop-color="#FF007E"/>
            <stop offset="1" stop-color="#A8161A"/>
        </linearGradient>
        <linearGradient id="paint4_linear" x1="8.99997" y1="41.6666" x2="68.9998" y2="41.6666" gradientUnits="userSpaceOnUse">
            <stop stop-color="#FF007E"/>
            <stop offset="1" stop-color="#A8161A"/>
        </linearGradient>
        <linearGradient id="paint5_linear" x1="8.99997" y1="50" x2="68.9998" y2="50" gradientUnits="userSpaceOnUse">
            <stop stop-color="#FF007E"/>
            <stop offset="1" stop-color="#A8161A"/>
        </linearGradient>
        <linearGradient id="paint6_linear" x1="8.99997" y1="58.3332" x2="68.9998" y2="58.3332" gradientUnits="userSpaceOnUse">
            <stop stop-color="#FF007E"/>
            <stop offset="1" stop-color="#A8161A"/>
        </linearGradient>
        <linearGradient id="paint7_linear" x1="8.99997" y1="66.6665" x2="68.9998" y2="66.6665" gradientUnits="userSpaceOnUse">
            <stop stop-color="#FF007E"/>
            <stop offset="1" stop-color="#A8161A"/>
        </linearGradient>
        <linearGradient id="paint8_linear" x1="8.99997" y1="82.5003" x2="69.0002" y2="82.5003" gradientUnits="userSpaceOnUse">
            <stop stop-color="#FF007E"/>
            <stop offset="1" stop-color="#A8161A"/>
        </linearGradient>
    </defs>
</svg>
