<svg width="100" height="100" viewBox="0 0 100 100" fill="none" xmlns="http://www.w3.org/2000/svg">
    <g clip-path="url(#clip0)">
        <path d="M50 76.6667C58.2845 76.6667 65 69.9512 65 61.6667C65 53.3822 58.2845 46.6667 50 46.6667C41.7155 46.6667 35 53.3822 35 61.6667C35.009 69.9471 41.7196 76.6577 50 76.6667ZM50 50C56.4437 50 61.6667 55.223 61.6667 61.6667C61.6667 68.1104 56.4437 73.3334 50 73.3334C43.5563 73.3334 38.3333 68.1104 38.3333 61.6667C38.3407 55.2263 43.5596 50.0073 50 50Z" fill="url(#paint0_linear)"/>
        <path d="M51.6667 66.6667H48.3333C47.4129 66.6667 46.6667 65.9204 46.6667 65H43.3333C43.3333 67.7612 45.5721 70 48.3333 70V71.6667H51.6667V70C54.4279 70 56.6667 67.7612 56.6667 65C56.6667 62.2388 54.4279 60 51.6667 60H48.3333C47.4129 60 46.6667 59.2538 46.6667 58.3334C46.6667 57.4129 47.4129 56.6667 48.3333 56.6667H51.6667C52.5871 56.6667 53.3333 57.4129 53.3333 58.3334H56.6667C56.6667 55.5721 54.4279 53.3334 51.6667 53.3334V51.6667H48.3333V53.3334C45.5721 53.3334 43.3333 55.5721 43.3333 58.3334C43.3333 61.0946 45.5721 63.3334 48.3333 63.3334H51.6667C52.5871 63.3334 53.3333 64.0796 53.3333 65C53.3333 65.9204 52.5871 66.6667 51.6667 66.6667Z" fill="url(#paint1_linear)"/>
        <path d="M98.3333 36.6667H88.3333V31.6667C88.3333 30.826 87.7075 30.1172 86.8734 30.013L78.4798 28.9632C78.0192 27.5326 77.4495 26.1401 76.7749 24.7966L81.9499 18.1299C82.465 17.4666 82.4056 16.5234 81.8115 15.9302L72.3966 6.51367C71.8026 5.91878 70.8586 5.85938 70.1953 6.37533L63.5286 11.5503C62.1883 10.8757 60.7992 10.306 59.3717 9.84538L58.3219 1.45182C58.2137 0.620118 57.5049 -0.000813003 56.6667 7.99005e-07H43.3333C42.4927 7.99005e-07 41.7839 0.625815 41.6797 1.45996L40.6299 9.85352C39.2025 10.3141 37.8133 10.8838 36.473 11.5584L29.8063 6.38346C29.1431 5.86751 28.1991 5.92692 27.605 6.52181L18.1901 15.9383C17.596 16.5324 17.5366 17.4748 18.0518 18.138L23.2267 24.8047C22.5521 26.1483 21.9824 27.5415 21.5218 28.9714L13.1283 30.022C12.2965 30.1245 11.6715 30.8293 11.6667 31.6667V36.6667H1.66667C0.746256 36.6667 0 37.4129 0 38.3333V98.3333C0 99.2537 0.746256 100 1.66667 100H98.3333C99.2537 100 100 99.2537 100 98.3333V38.3333C100 37.4129 99.2537 36.6667 98.3333 36.6667ZM78.418 40C79.2423 49.7168 86.9499 57.4243 96.6667 58.2487V65.0814C86.9491 65.9058 79.2407 73.6157 78.418 83.3333H21.5853C20.7609 73.6157 13.0509 65.9074 3.33333 65.0846V58.252C13.0509 57.4276 20.7593 49.7176 21.582 40H78.418ZM36.7814 36.6667C37.6164 30.0016 43.2829 25.0008 50 25.0008C56.7171 25.0008 62.3836 30.0016 63.2186 36.6667H36.7814ZM96.6667 83.3333H81.7497C82.5537 75.4517 88.785 69.2204 96.6667 68.4163V83.3333ZM18.2503 83.3333H3.33333V68.4163C11.215 69.2204 17.4463 75.4517 18.2503 83.3333ZM3.33333 86.6667H96.6667V90H3.33333V86.6667ZM96.6667 54.917C88.785 54.113 82.5537 47.8817 81.7497 40H96.6667V54.917ZM15 33.138L22.9997 32.1387C23.6637 32.0557 24.2131 31.5845 24.397 30.9416C24.9357 29.0283 25.6917 27.1834 26.6504 25.4419C26.9751 24.8576 26.9198 24.1357 26.5096 23.6084L21.578 17.2534L28.9119 9.92025L35.2669 14.8519C35.7943 15.262 36.5161 15.3182 37.0996 14.9935C38.8411 14.0332 40.686 13.2772 42.6001 12.7384C43.2438 12.5553 43.7158 12.0052 43.798 11.342L44.7982 3.34147H55.188L56.1881 11.342C56.2712 12.0052 56.7432 12.5553 57.3869 12.7384C59.3018 13.2788 61.1483 14.0373 62.8898 15C63.4741 15.3247 64.196 15.2686 64.7233 14.8584L71.0783 9.92676L78.4115 17.2599L73.4831 23.6117C73.0729 24.1398 73.0184 24.8608 73.3431 25.4452C74.3009 27.1867 75.057 29.0316 75.5965 30.9448C75.7804 31.5877 76.3298 32.0589 76.993 32.1419L84.9935 33.1413V36.6667H66.582C65.7267 28.1494 58.5588 21.6642 49.9984 21.6642C41.438 21.6642 34.27 28.1494 33.4147 36.6667H15V33.138ZM3.33333 40H18.2503C17.4463 47.8817 11.215 54.113 3.33333 54.917V40ZM96.6667 96.6667H3.33333V93.3333H96.6667V96.6667Z" fill="url(#paint2_linear)"/>
    </g>
    <defs>
        <linearGradient id="paint0_linear" x1="35" y1="61.6667" x2="65" y2="61.6667" gradientUnits="userSpaceOnUse">
            <stop stop-color="#FF007E"/>
            <stop offset="1" stop-color="#A8161A"/>
        </linearGradient>
        <linearGradient id="paint1_linear" x1="43.3333" y1="61.6667" x2="56.6667" y2="61.6667" gradientUnits="userSpaceOnUse">
            <stop stop-color="#FF007E"/>
            <stop offset="1" stop-color="#A8161A"/>
        </linearGradient>
        <linearGradient id="paint2_linear" x1="0" y1="50" x2="100" y2="50" gradientUnits="userSpaceOnUse">
            <stop stop-color="#FF007E"/>
            <stop offset="1" stop-color="#A8161A"/>
        </linearGradient>
        <clipPath id="clip0">
            <rect width="100" height="100" fill="white"/>
        </clipPath>
    </defs>
</svg>
