<svg width="100" height="100" viewBox="0 0 100 100" fill="none" xmlns="http://www.w3.org/2000/svg">
    <path fill-rule="evenodd" clip-rule="evenodd" d="M19.353 12.902H45.098V9.68627H19.353V8.05882C19.3581 6.77593 19.87 5.54706 20.7772 4.63991C21.6843 3.73276 22.9132 3.22085 24.1961 3.21569H58.0588C58.9169 3.21569 59.7398 3.55655 60.3465 4.16328C60.9533 4.77002 61.2941 5.59293 61.2941 6.45098H64.5098C64.5098 4.74007 63.8302 3.09924 62.6204 1.88945C61.4106 0.679655 59.7697 0 58.0588 0L24.1961 0C22.0588 0 20.009 0.849052 18.4976 2.36037C16.9863 3.8717 16.1373 5.92149 16.1373 8.05882V16.1373H19.353V12.902ZM19.353 77.4118V72.549H25.8039V69.3529H16.1373V77.4118C16.1373 79.5509 16.9857 81.6027 18.4964 83.1172C20.0072 84.6316 22.057 85.485 24.1961 85.4902H29.0392V82.3529H24.1961C23.5525 82.3504 22.9158 82.2202 22.3229 81.9698C21.7301 81.7193 21.1928 81.3537 20.7423 80.8941C20.2918 80.4345 19.937 79.89 19.6985 79.2922C19.46 78.6944 19.3426 78.0553 19.353 77.4118ZM29.7647 41.5882C30.8694 40.6384 31.6569 39.3733 32.0215 37.9628C32.3861 36.5524 32.3104 35.0641 31.8045 33.6979C31.2986 32.3318 30.3867 31.1531 29.1914 30.3203C27.9961 29.4875 26.5745 29.0405 25.1177 29.0392H24.8628C23.927 29.0343 22.9995 29.2156 22.1344 29.5724C21.2693 29.9292 20.4838 30.4545 19.8235 31.1176L19.353 31.5882L18.8824 31.1176C18.2221 30.4545 17.4366 29.9292 16.5715 29.5724C15.7064 29.2156 14.7789 29.0343 13.8431 29.0392H13.5882C12.1314 29.0405 10.7099 29.4875 9.51452 30.3203C8.31918 31.1531 7.40732 32.3318 6.90141 33.6979C6.39549 35.0641 6.31977 36.5524 6.6844 37.9628C7.04903 39.3733 7.83655 40.6384 8.94118 41.5882L19.353 50.5098L29.7647 41.5882ZM9.68628 36.1765C9.68628 35.1364 10.0994 34.1389 10.8349 33.4035C11.5703 32.6681 12.5678 32.2549 13.6079 32.2549H13.8628C14.8833 32.2435 15.868 32.6304 16.6079 33.3333L19.353 36.0784L22.0981 33.3333C22.8301 32.5969 23.8244 32.1808 24.8628 32.1765H25.1177C25.9527 32.1391 26.7777 32.3695 27.4726 32.8341C28.1674 33.2986 28.6956 33.973 28.9802 34.7589C29.2648 35.5448 29.2909 36.401 29.0546 37.2028C28.8183 38.0045 28.332 38.7098 27.6667 39.2157L19.353 46.2549L11.0392 39.2157C10.6149 38.8478 10.2744 38.3931 10.041 37.8823C9.80761 37.3715 9.68664 36.8165 9.68628 36.2549V36.1765ZM38.7059 38.7059C38.7059 34.8782 37.5709 31.1365 35.4443 27.954C33.3178 24.7714 30.2953 22.2909 26.759 20.8261C23.2227 19.3613 19.3315 18.9781 15.5774 19.7248C11.8233 20.4715 8.37491 22.3147 5.66835 25.0213C2.9618 27.7278 1.11861 31.1762 0.37187 34.9303C-0.374867 38.6844 0.00838532 42.5756 1.47316 46.1119C2.93794 49.6482 5.41846 52.6707 8.60103 54.7973C11.7836 56.9238 15.5253 58.0588 19.353 58.0588C24.4841 58.0536 29.4036 56.013 33.0318 52.3847C36.6601 48.7565 38.7007 43.837 38.7059 38.7059ZM3.2353 38.7059C3.24693 35.5159 4.20374 32.401 5.98484 29.7546C7.76595 27.1081 10.2914 25.049 13.2423 23.8372C16.1931 22.6254 19.4369 22.3153 22.5639 22.9462C25.6909 23.5771 28.5607 25.1206 30.8109 27.3817C33.061 29.6428 34.5906 32.5201 35.2063 35.6501C35.822 38.7801 35.4962 42.0223 34.2701 44.9673C33.044 47.9122 30.9726 50.4277 28.3175 52.1959C25.6625 53.9641 22.5429 54.9058 19.353 54.902C15.0765 54.8968 10.9769 53.1943 7.95486 50.1685C4.93278 47.1428 3.2353 43.0412 3.2353 38.7647V38.7059ZM48.3333 9.68627V29.0392H51.549V12.902H96.6471V53.2157H88.7059V56.451H100V9.68627H48.3333ZM87.0392 29.0392C87.0421 26.8563 86.491 24.7084 85.4376 22.7964C84.3841 20.8845 82.8629 19.2711 81.0161 18.1073C79.1693 16.9434 77.0574 16.2672 74.8781 16.1419C72.6988 16.0165 70.5233 16.4462 68.5553 17.3906C66.5872 18.335 64.891 19.7634 63.6253 21.5419C62.3597 23.3205 61.566 25.3911 61.3185 27.5599C61.071 29.7288 61.3779 31.9249 62.2104 33.9429C63.0429 35.9608 64.3737 37.7345 66.0784 39.098V40.3137H62.902V43.549H79.0392V46.7647H77.4118V50H82.353V43.549H85.4902V40.3137H82.353V39.098C83.8598 37.8892 85.0769 36.3583 85.915 34.6177C86.753 32.8772 87.1908 30.971 87.1961 29.0392H87.0392ZM74.1373 30.6471C73.8146 30.6509 73.498 30.5588 73.2278 30.3824C72.9576 30.2059 72.746 29.9531 72.6198 29.6561C72.4936 29.3591 72.4586 29.0313 72.5191 28.7143C72.5797 28.3973 72.7331 28.1055 72.9599 27.8759C73.1867 27.6464 73.4767 27.4894 73.7929 27.425C74.1091 27.3606 74.4373 27.3917 74.7358 27.5143C75.0344 27.6368 75.2897 27.8454 75.4694 28.1134C75.6491 28.3815 75.7451 28.6969 75.7451 29.0196C75.7451 29.446 75.5757 29.855 75.2742 30.1565C74.9727 30.4581 74.5637 30.6275 74.1373 30.6275V30.6471ZM79.6667 36.9608L78.9804 37.451V40.3137H75.8039V33.5686C76.8822 33.1891 77.7914 32.4405 78.3709 31.4552C78.9503 30.4699 79.1626 29.3113 78.9701 28.1846C78.7776 27.0579 78.1928 26.0355 77.3191 25.2984C76.4454 24.5613 75.3392 24.157 74.1961 24.157C73.053 24.157 71.9468 24.5613 71.0731 25.2984C70.1994 26.0355 69.6146 27.0579 69.4221 28.1846C69.2296 29.3113 69.4419 30.4699 70.0213 31.4552C70.6007 32.4405 71.51 33.1891 72.5882 33.5686V40.3137H69.353V37.451L68.6275 36.9608C66.9399 35.7839 65.6718 34.0994 65.0077 32.1521C64.3436 30.2048 64.318 28.0965 64.9348 26.1337C65.5516 24.171 66.7786 22.4562 68.4372 21.2388C70.0957 20.0215 72.0995 19.3651 74.1569 19.3651C76.2143 19.3651 78.218 20.0215 79.8766 21.2388C81.5352 22.4562 82.7621 24.171 83.3789 26.1337C83.9957 28.0965 83.9702 30.2048 83.3061 32.1521C82.6419 34.0994 81.3739 35.7839 79.6863 36.9608H79.6667ZM78.9804 53.2157C77.8827 54.4995 76.3202 55.295 74.6363 55.4273C72.9524 55.5597 71.2848 55.0181 70 53.9216C69.7455 53.7063 69.5094 53.4702 69.2941 53.2157C68.6977 53.9149 67.9567 54.4763 67.1223 54.8613C66.2878 55.2463 65.3798 55.4457 64.4608 55.4457C63.5418 55.4457 62.6338 55.2463 61.7993 54.8613C60.9649 54.4763 60.2239 53.9149 59.6275 53.2157C58.4886 53.2273 57.3728 53.5383 56.3922 54.1176V38.7059C56.3922 36.995 55.7125 35.3541 54.5027 34.1443C53.2929 32.9346 51.6521 32.2549 49.9412 32.2549C48.2303 32.2549 46.5895 32.9346 45.3797 34.1443C44.1699 35.3541 43.4902 36.995 43.4902 38.7059V71.6274C43.4878 71.8709 43.3891 72.1036 43.2157 72.2745C43.0326 72.4261 42.8059 72.5154 42.5686 72.5294C42.3735 72.5321 42.183 72.4701 42.0269 72.353C41.8708 72.2359 41.7579 72.0704 41.7059 71.8824L39.4902 64.0392C39.1307 62.7628 38.3585 61.6414 37.2943 60.8503C36.23 60.0593 34.9337 59.643 33.6079 59.6667H33.2745C32.3869 59.6668 31.5104 59.8639 30.7082 60.2438C29.906 60.6236 29.198 61.1766 28.6353 61.8631C28.0727 62.5496 27.6693 63.3523 27.4543 64.2135C27.2394 65.0746 27.2181 65.9728 27.3922 66.8431L29.4706 77.2549C30.2513 81.0999 32.3277 84.5606 35.353 87.0588L40.2549 91.1569V100H79.0392V98.0392C79.0334 96.8046 79.2731 95.5812 79.7443 94.44C80.2156 93.2989 80.909 92.2629 81.7843 91.3922C84.1563 89.021 85.4893 85.8049 85.4902 82.451V59.6863C85.4902 57.9736 84.8112 56.3307 83.602 55.1178C82.3927 53.9049 80.7519 53.2209 79.0392 53.2157H78.9804ZM82.1961 82.6274C82.1976 83.8614 81.956 85.0836 81.4849 86.2241C81.0139 87.3647 80.3228 88.4012 79.451 89.2745C77.3969 91.3056 76.1143 93.9887 75.8235 96.8627H43.549V89.5686L37.4706 84.5098C35.0695 82.4981 33.4182 79.7344 32.7843 76.6667L30.7059 66.2745C30.6866 66.092 30.6866 65.908 30.7059 65.7255C30.711 64.9886 31.006 64.2834 31.5271 63.7624C32.0481 63.2413 32.7533 62.9463 33.4902 62.9412H33.8235C34.4219 62.9386 35.0054 63.1275 35.4888 63.4803C35.9721 63.8331 36.3299 64.3313 36.5098 64.902L38.7255 72.7451C38.9642 73.6035 39.4761 74.3607 40.1838 74.902C40.8914 75.4433 41.7561 75.7393 42.6471 75.7451C43.1954 75.7671 43.7423 75.6737 44.2523 75.4711C44.7623 75.2684 45.2241 74.961 45.6079 74.5686C46.005 74.1845 46.3207 73.7245 46.5363 73.2158C46.7519 72.7071 46.8629 72.1603 46.8628 71.6078V38.7059C46.8628 37.853 47.2015 37.0351 47.8046 36.432C48.4077 35.829 49.2256 35.4902 50.0784 35.4902C50.9313 35.4902 51.7492 35.829 52.3523 36.432C52.9553 37.0351 53.2941 37.853 53.2941 38.7059V66.1569H56.5294V59.6863C56.4947 59.2416 56.5524 58.7945 56.6987 58.3731C56.8451 57.9517 57.077 57.5651 57.3799 57.2377C57.6828 56.9102 58.0502 56.6489 58.4589 56.4702C58.8676 56.2915 59.3088 56.1993 59.7549 56.1993C60.201 56.1993 60.6422 56.2915 61.051 56.4702C61.4597 56.6489 61.827 56.9102 62.1299 57.2377C62.4328 57.5651 62.6647 57.9517 62.8111 58.3731C62.9575 58.7945 63.0151 59.2416 62.9804 59.6863V66.1373H66.2157V59.6863C66.181 59.2416 66.2386 58.7945 66.385 58.3731C66.5314 57.9517 66.7633 57.5651 67.0662 57.2377C67.3691 56.9102 67.7364 56.6489 68.1451 56.4702C68.5539 56.2915 68.9951 56.1993 69.4412 56.1993C69.8873 56.1993 70.3285 56.2915 70.7372 56.4702C71.146 56.6489 71.5133 56.9102 71.8162 57.2377C72.1191 57.5651 72.351 57.9517 72.4974 58.3731C72.6437 58.7945 72.7014 59.2416 72.6667 59.6863V66.1373H75.8824V59.6863C75.8477 59.2416 75.9053 58.7945 76.0517 58.3731C76.198 57.9517 76.4299 57.5651 76.7328 57.2377C77.0357 56.9102 77.4031 56.6489 77.8118 56.4702C78.2205 56.2915 78.6618 56.1993 79.1079 56.1993C79.5539 56.1993 79.9952 56.2915 80.4039 56.4702C80.8126 56.6489 81.18 56.9102 81.4829 57.2377C81.7858 57.5651 82.0177 57.9517 82.1641 58.3731C82.3104 58.7945 82.368 59.2416 82.3334 59.6863V82.5294L82.1961 82.6274ZM16.1373 61.2941H19.353V66.1373H16.1373V61.2941Z" fill="url(#paint0_linear)"/>
    <defs>
        <linearGradient id="paint0_linear" x1="8.70619e-06" y1="50" x2="100" y2="50" gradientUnits="userSpaceOnUse">
            <stop stop-color="#FF007E"/>
            <stop offset="1" stop-color="#A8161A"/>
        </linearGradient>
    </defs>
</svg>
