<svg width="116" height="100" viewBox="0 0 116 100" fill="none" xmlns="http://www.w3.org/2000/svg">
    <path fill-rule="evenodd" clip-rule="evenodd" d="M109.739 8.3917e-05H90.9349C90.7142 -0.00283873 90.4952 0.0384621 90.2908 0.121549C90.0864 0.204636 89.9007 0.327826 89.7447 0.48385C89.5887 0.639873 89.4655 0.825568 89.3824 1.02998C89.2993 1.23439 89.258 1.45337 89.2609 1.674C89.258 1.89463 89.2993 2.11361 89.3824 2.31802C89.4655 2.52243 89.5887 2.70812 89.7447 2.86414C89.9007 3.02017 90.0864 3.14336 90.2908 3.22644C90.4952 3.30953 90.7142 3.35083 90.9349 3.34791H109.739C110.316 3.34791 110.869 3.57695 111.276 3.98463C111.684 4.39232 111.913 4.94527 111.913 5.52182V67.8914H27.5653V3.34791H83.2392C83.4598 3.35083 83.6788 3.30953 83.8832 3.22644C84.0876 3.14336 84.2733 3.02017 84.4293 2.86414C84.5854 2.70812 84.7086 2.52243 84.7916 2.31802C84.8747 2.11361 84.916 1.89463 84.9131 1.674C84.916 1.45337 84.8747 1.23439 84.7916 1.02998C84.7086 0.825568 84.5854 0.639873 84.4293 0.48385C84.2733 0.327826 84.0876 0.204636 83.8832 0.121549C83.6788 0.0384621 83.4598 -0.00283873 83.2392 8.3917e-05H5.47833C4.03291 3.8394e-05 2.64604 0.571239 1.6199 1.58923C0.593772 2.60722 0.0115396 3.98949 6.79926e-05 5.43487V77.4131C-0.00566343 78.3789 0.179601 79.3362 0.545205 80.2301C0.910808 81.1239 1.44954 81.9367 2.1304 82.6216C2.81126 83.3065 3.62082 83.85 4.5125 84.2209C5.40419 84.5918 6.36041 84.7827 7.32615 84.7827H30.4348C30.8788 84.7827 31.3046 84.6063 31.6185 84.2924C31.9324 83.9785 32.1088 83.5527 32.1088 83.1088C32.1088 82.6648 31.9324 82.2391 31.6185 81.9251C31.3046 81.6112 30.8788 81.4349 30.4348 81.4349H7.32615C6.28058 81.4349 5.2775 81.021 4.53613 80.2837C3.79476 79.5464 3.37538 78.5457 3.36963 77.5001V71.2392H111.848V77.4131C111.842 78.4587 111.423 79.4595 110.681 80.1968C109.94 80.9341 108.937 81.3479 107.891 81.3479H38.0435C37.5996 81.3479 37.1738 81.5243 36.8599 81.8382C36.546 82.1521 36.3696 82.5779 36.3696 83.0218C36.3696 83.4658 36.546 83.8915 36.8599 84.2055C37.1738 84.5194 37.5996 84.6957 38.0435 84.6957H48.0435C48.0435 84.8914 47.8914 85.1088 47.8044 85.3262C46.9079 88.1996 44.9166 90.6049 42.2609 92.0218C41.5637 92.3417 40.9711 92.8524 40.5518 93.4948C40.1325 94.1372 39.9035 94.8852 39.8914 95.6523V95.8479C39.8856 96.3911 39.9877 96.9301 40.1916 97.4336C40.3955 97.9371 40.6972 98.3952 41.0793 98.7813C41.4614 99.1675 41.9163 99.474 42.4176 99.6832C42.919 99.8924 43.4568 100 44.0001 100H56.9131C57.3571 100 57.7828 99.8237 58.0967 99.5098C58.4107 99.1959 58.587 98.7701 58.587 98.3262C58.587 97.8822 58.4107 97.4565 58.0967 97.1425C57.7828 96.8286 57.3571 96.6523 56.9131 96.6523H44.0001C43.804 96.6523 43.616 96.5744 43.4774 96.4358C43.3388 96.2972 43.2609 96.1092 43.2609 95.9131V95.6523C43.2598 95.5069 43.3028 95.3646 43.3844 95.2443C43.4659 95.1239 43.5821 95.0312 43.7175 94.9783C47.1613 93.1889 49.7676 90.1222 50.9783 86.4349C51.174 85.8479 51.4131 85.2392 51.587 84.6305H63.6522C63.8224 85.2425 64.0256 85.8448 64.2609 86.4349C65.4561 90.1241 68.057 93.1938 71.5001 94.9783C71.6355 95.0312 71.7516 95.1239 71.8332 95.2443C71.9147 95.3646 71.9577 95.5069 71.9566 95.6523V95.8479C71.9567 96.0402 71.8818 96.225 71.7478 96.363C71.6139 96.501 71.4314 96.5814 71.2392 96.587H64.6088C64.1648 96.587 63.739 96.7634 63.4251 97.0773C63.1112 97.3912 62.9348 97.817 62.9348 98.261C62.9348 98.7049 63.1112 99.1307 63.4251 99.4446C63.739 99.7585 64.1648 99.9349 64.6088 99.9349H71.1305C72.2185 99.9349 73.2625 99.5057 74.0359 98.7405C74.8093 97.9753 75.2495 96.9358 75.2609 95.8479V95.6523C75.2533 94.8758 75.0269 94.1172 74.6078 93.4636C74.1887 92.8099 73.5938 92.2876 72.8914 91.9566C70.2726 90.5372 68.3024 88.1621 67.3914 85.3262C67.3914 85.1088 67.2392 84.8914 67.1522 84.6957H107.891C109.827 84.6958 111.684 83.9299 113.056 82.5654C114.429 81.2009 115.206 79.3486 115.217 77.4131V5.43487C115.206 3.98949 114.624 2.60722 113.598 1.58923C112.571 0.571239 111.185 3.8394e-05 109.739 8.3917e-05ZM24.1957 67.8914H3.36963V5.43487C3.36963 4.85831 3.59867 4.30537 4.00636 3.89768C4.41405 3.48999 4.96699 3.26095 5.54355 3.26095H24.2609L24.1957 67.8914ZM104.174 11.6523H96.7175C95.9025 11.6522 95.1206 11.9745 94.5423 12.5487C93.964 13.1229 93.6362 13.9025 93.6305 14.7175V60.174C93.6305 60.618 93.8069 61.0437 94.1208 61.3576C94.4347 61.6716 94.8605 61.8479 95.3044 61.8479H105.565C106.011 61.848 106.439 61.6723 106.757 61.359C107.074 61.0457 107.255 60.6199 107.261 60.174V14.7175C107.255 13.9025 106.927 13.1229 106.349 12.5487C105.771 11.9745 104.989 11.6522 104.174 11.6523ZM103.87 58.5001H97.0001V20.9349H103.87V58.5001ZM103.87 17.587H97.0001V15.0001H103.87V17.587ZM100.978 23.2175H100C99.5561 23.2175 99.1304 23.3938 98.8164 23.7078C98.5025 24.0217 98.3262 24.4474 98.3262 24.8914C98.3262 25.3353 98.5025 25.7611 98.8164 26.075C99.1304 26.3889 99.5561 26.5653 100 26.5653H101.087C101.531 26.5653 101.957 26.3889 102.271 26.075C102.585 25.7611 102.761 25.3353 102.761 24.8914C102.761 24.4474 102.585 24.0217 102.271 23.7078C101.957 23.3938 101.531 23.2175 101.087 23.2175H100.978ZM100.978 29.0001H100C99.5918 29.0468 99.2149 29.2422 98.9414 29.5489C98.6678 29.8555 98.5166 30.2522 98.5166 30.6631C98.5166 31.0741 98.6678 31.4707 98.9414 31.7774C99.2149 32.0841 99.5918 32.2794 100 32.3262H101.087C101.321 32.353 101.559 32.33 101.784 32.2587C102.008 32.1874 102.216 32.0693 102.392 31.9123C102.568 31.7553 102.709 31.5628 102.805 31.3475C102.902 31.1323 102.951 30.899 102.951 30.6631C102.951 30.4272 102.902 30.194 102.805 29.9787C102.709 29.7635 102.568 29.571 102.392 29.414C102.216 29.2569 102.008 29.1389 101.784 29.0676C101.559 28.9962 101.321 28.9732 101.087 29.0001H100.978ZM100.978 34.761H100C99.5561 34.761 99.1304 34.9373 98.8164 35.2512C98.5025 35.5652 98.3262 35.9909 98.3262 36.4349C98.3262 36.8788 98.5025 37.3046 98.8164 37.6185C99.1304 37.9324 99.5561 38.1088 100 38.1088H101.087C101.531 38.1088 101.957 37.9324 102.271 37.6185C102.585 37.3046 102.761 36.8788 102.761 36.4349C102.761 35.9909 102.585 35.5652 102.271 35.2512C101.957 34.9373 101.531 34.761 101.087 34.761H100.978ZM100.978 40.5218H100C99.5561 40.5218 99.1304 40.6982 98.8164 41.0121C98.5025 41.326 98.3262 41.7518 98.3262 42.1957C98.3262 42.6397 98.5025 43.0655 98.8164 43.3794C99.1304 43.6933 99.5561 43.8697 100 43.8697H101.087C101.531 43.8697 101.957 43.6933 102.271 43.3794C102.585 43.0655 102.761 42.6397 102.761 42.1957C102.761 41.7518 102.585 41.326 102.271 41.0121C101.957 40.6982 101.531 40.5218 101.087 40.5218H100.978ZM100.978 46.3044H100C99.5561 46.3044 99.1304 46.4808 98.8164 46.7947C98.5025 47.1086 98.3262 47.5344 98.3262 47.9783C98.3262 48.4223 98.5025 48.8481 98.8164 49.162C99.1304 49.4759 99.5561 49.6523 100 49.6523H101.087C101.531 49.6523 101.957 49.4759 102.271 49.162C102.585 48.8481 102.761 48.4223 102.761 47.9783C102.761 47.5344 102.585 47.1086 102.271 46.7947C101.957 46.4808 101.531 46.3044 101.087 46.3044H100.978ZM100.978 52.0653H100C99.5561 52.0653 99.1304 52.2417 98.8164 52.5556C98.5025 52.8695 98.3262 53.2953 98.3262 53.7392C98.3262 54.1832 98.5025 54.6089 98.8164 54.9229C99.1304 55.2368 99.5561 55.4131 100 55.4131H101.087C101.531 55.4131 101.957 55.2368 102.271 54.9229C102.585 54.6089 102.761 54.1832 102.761 53.7392C102.761 53.2953 102.585 52.8695 102.271 52.5556C101.957 52.2417 101.531 52.0653 101.087 52.0653H100.978ZM11.587 13.9783H9.21746C8.76486 13.9783 8.3308 14.1581 8.01077 14.4782C7.69073 14.7982 7.51094 15.2323 7.51094 15.6849C7.51094 16.1375 7.69073 16.5715 8.01077 16.8916C8.3308 17.2116 8.76486 17.3914 9.21746 17.3914H11.587C12.031 17.3914 12.4567 17.215 12.7707 16.9011C13.0846 16.5872 13.2609 16.1614 13.2609 15.7175C13.2609 15.2735 13.0846 14.8478 12.7707 14.5338C12.4567 14.2199 12.031 14.0436 11.587 14.0436V13.9783ZM18.3479 19.8914H9.21746C8.77351 19.8914 8.34774 20.0677 8.03382 20.3817C7.7199 20.6956 7.54355 21.1214 7.54355 21.5653C7.54355 22.0093 7.7199 22.435 8.03382 22.7489C8.34774 23.0629 8.77351 23.2392 9.21746 23.2392H18.3479C18.7918 23.2392 19.2176 23.0629 19.5315 22.7489C19.8454 22.435 20.0218 22.0093 20.0218 21.5653C20.0218 21.1214 19.8454 20.6956 19.5315 20.3817C19.2176 20.0677 18.7918 19.8914 18.3479 19.8914ZM18.3479 23.9566H9.21746C8.77351 23.9566 8.34774 24.133 8.03382 24.4469C7.7199 24.7608 7.54355 25.1866 7.54355 25.6305C7.54355 26.0745 7.7199 26.5002 8.03382 26.8142C8.34774 27.1281 8.77351 27.3044 9.21746 27.3044H18.3479C18.7918 27.3044 19.2176 27.1281 19.5315 26.8142C19.8454 26.5002 20.0218 26.0745 20.0218 25.6305C20.0218 25.1866 19.8454 24.7608 19.5315 24.4469C19.2176 24.133 18.7918 23.9566 18.3479 23.9566ZM18.3479 28.0436H9.21746C8.77351 28.0436 8.34774 28.2199 8.03382 28.5338C7.7199 28.8478 7.54355 29.2735 7.54355 29.7175C7.54355 30.1614 7.7199 30.5872 8.03382 30.9011C8.34774 31.215 8.77351 31.3914 9.21746 31.3914H18.3479C18.7918 31.3914 19.2176 31.215 19.5315 30.9011C19.8454 30.5872 20.0218 30.1614 20.0218 29.7175C20.0218 29.2735 19.8454 28.8478 19.5315 28.5338C19.2176 28.2199 18.7918 28.0436 18.3479 28.0436ZM11.587 38.9131H9.21746C8.77351 38.9131 8.34774 39.0895 8.03382 39.4034C7.7199 39.7173 7.54355 40.1431 7.54355 40.587C7.54355 41.031 7.7199 41.4568 8.03382 41.7707C8.34774 42.0846 8.77351 42.261 9.21746 42.261H11.587C12.031 42.261 12.4567 42.0846 12.7707 41.7707C13.0846 41.4568 13.2609 41.031 13.2609 40.587C13.2609 40.1431 13.0846 39.7173 12.7707 39.4034C12.4567 39.0895 12.031 38.9131 11.587 38.9131ZM18.3479 44.8262H9.21746C8.9831 44.7993 8.74571 44.8223 8.52086 44.8937C8.29601 44.965 8.08877 45.083 7.91274 45.2401C7.73671 45.3971 7.59585 45.5895 7.4994 45.8048C7.40295 46.0201 7.3531 46.2533 7.3531 46.4892C7.3531 46.7251 7.40295 46.9583 7.4994 47.1736C7.59585 47.3889 7.73671 47.5813 7.91274 47.7384C8.08877 47.8954 8.29601 48.0134 8.52086 48.0848C8.74571 48.1561 8.9831 48.1791 9.21746 48.1523H18.3479C18.7562 48.1055 19.133 47.9102 19.4066 47.6035C19.6802 47.2968 19.8314 46.9002 19.8314 46.4892C19.8314 46.0782 19.6802 45.6816 19.4066 45.375C19.133 45.0683 18.7562 44.8729 18.3479 44.8262ZM18.3479 48.8914H9.21746C8.77351 48.8914 8.34774 49.0678 8.03382 49.3817C7.7199 49.6956 7.54355 50.1214 7.54355 50.5653C7.54355 51.0093 7.7199 51.435 8.03382 51.7489C8.34774 52.0629 8.77351 52.2392 9.21746 52.2392H18.3479C18.7918 52.2392 19.2176 52.0629 19.5315 51.7489C19.8454 51.435 20.0218 51.0093 20.0218 50.5653C20.0218 50.1214 19.8454 49.6956 19.5315 49.3817C19.2176 49.0678 18.7918 48.8914 18.3479 48.8914ZM18.3479 52.9784H9.21746C8.77351 52.9784 8.34774 53.1547 8.03382 53.4686C7.7199 53.7825 7.54355 54.2083 7.54355 54.6523C7.54355 55.0962 7.7199 55.522 8.03382 55.8359C8.34774 56.1498 8.77351 56.3262 9.21746 56.3262H18.3479C18.7918 56.3262 19.2176 56.1498 19.5315 55.8359C19.8454 55.522 20.0218 55.0962 20.0218 54.6523C20.0218 54.2083 19.8454 53.7825 19.5315 53.4686C19.2176 53.1547 18.7918 52.9784 18.3479 52.9784ZM87.2827 34.587L78.8479 29.5218L69.9783 24.1957L61.5435 19.0653C61.2815 18.906 60.9807 18.8217 60.674 18.8217C60.3673 18.8217 60.0665 18.906 59.8044 19.0653L51.4131 24.1088L42.5435 29.4349L34.1088 34.5001C33.8625 34.6498 33.6591 34.8605 33.5182 35.1119C33.3773 35.3632 33.3036 35.6467 33.3044 35.9349C33.3009 36.2206 33.3736 36.5021 33.5149 36.7505C33.6563 36.9988 33.8613 37.2051 34.1088 37.3479L59.8479 52.8262C60.11 52.9855 60.4108 53.0698 60.7175 53.0698C61.0242 53.0698 61.325 52.9855 61.587 52.8262L87.3044 37.3479C87.5575 37.2097 87.7681 37.0051 87.9137 36.7561C88.0592 36.5072 88.1342 36.2232 88.1305 35.9349C88.1269 35.6451 88.0491 35.361 87.9045 35.1098C87.7598 34.8586 87.5533 34.6487 87.3044 34.5001L87.2827 34.587ZM74.7175 30.9566L69.5653 34.0001L63.9348 30.6088L69.1088 27.5001L74.7175 30.9566ZM66.3044 35.9566L60.674 39.3262L55.0435 35.9566L60.674 32.6088L66.3044 35.9566ZM60.674 22.4349L65.8479 25.5436L60.674 28.6523L55.5001 25.5436L60.674 22.4349ZM52.174 27.5001L57.3262 30.6088L51.7175 34.0001L46.5435 30.8914L52.174 27.5001ZM38.1305 35.9566L43.4783 32.8479L48.6522 35.9566L43.4783 39.1305L38.1305 35.9566ZM46.5435 41.0001L51.7175 37.9131L57.4131 41.3044L52.174 44.3914L46.5435 41.0001ZM60.587 49.4566L55.4131 46.3479L60.587 43.2392L65.7609 46.3479L60.587 49.4566ZM69.0001 44.3914L63.9348 41.3044L69.5653 37.9131L74.7175 41.0001L69.0001 44.3914ZM77.9783 39.1305L72.8044 36.0218L77.9783 32.9131L83.1522 36.0218L77.9783 39.1305ZM74.3262 49.3697H72.8044C72.3605 49.3697 71.9347 49.546 71.6208 49.8599C71.3069 50.1739 71.1305 50.5996 71.1305 51.0436C71.1305 51.4875 71.3069 51.9133 71.6208 52.2272C71.9347 52.5411 72.3605 52.7175 72.8044 52.7175H74.3262C74.7701 52.7175 75.1959 52.5411 75.5098 52.2272C75.8237 51.9133 76.0001 51.4875 76.0001 51.0436C76.0001 50.5996 75.8237 50.1739 75.5098 49.8599C75.1959 49.546 74.7701 49.3697 74.3262 49.3697ZM82.3696 53.7175H72.8044C72.3605 53.7175 71.9347 53.8938 71.6208 54.2078C71.3069 54.5217 71.1305 54.9474 71.1305 55.3914C71.1305 55.8353 71.3069 56.2611 71.6208 56.575C71.9347 56.8889 72.3605 57.0653 72.8044 57.0653H82.3696C82.8136 57.0653 83.2393 56.8889 83.5533 56.575C83.8672 56.2611 84.0435 55.8353 84.0435 55.3914C84.0435 54.9474 83.8672 54.5217 83.5533 54.2078C83.2393 53.8938 82.8136 53.7175 82.3696 53.7175Z" fill="url(#paint0_linear)"/>
    <defs>
        <linearGradient id="paint0_linear" x1="6.79926e-05" y1="50.0001" x2="115.217" y2="50.0001" gradientUnits="userSpaceOnUse">
            <stop stop-color="#FF007E"/>
            <stop offset="1" stop-color="#A8161A"/>
        </linearGradient>
    </defs>
</svg>
