<svg width="71" height="100" viewBox="0 0 71 100" fill="none" xmlns="http://www.w3.org/2000/svg">
    <path fill-rule="evenodd" clip-rule="evenodd" d="M13.9412 55.8627C13.5534 55.8627 13.1743 55.9777 12.8518 56.1932C12.5294 56.4087 12.2781 56.7149 12.1296 57.0732C11.9812 57.4315 11.9424 57.8257 12.0181 58.2061C12.0937 58.5864 12.2805 58.9358 12.5547 59.21C12.8289 59.4842 13.1783 59.671 13.5586 59.7466C13.939 59.8223 14.3333 59.7835 14.6915 59.6351C15.0498 59.4867 15.3561 59.2353 15.5715 58.9129C15.787 58.5904 15.902 58.2113 15.902 57.8235C15.902 57.3035 15.6954 56.8048 15.3277 56.437C14.9599 56.0693 14.4612 55.8627 13.9412 55.8627ZM13.9412 63.7059C13.4211 63.7059 12.9224 63.9125 12.5547 64.2802C12.187 64.6479 11.9804 65.1466 11.9804 65.6667V90.1961C11.9611 90.4536 11.9927 90.7123 12.0734 90.9576C12.1541 91.2029 12.2823 91.4299 12.4507 91.6256C12.6191 91.8214 12.8244 91.982 13.055 92.0984C13.2855 92.2148 13.5366 92.2846 13.7941 92.3039C14.0516 92.3232 14.3104 92.2916 14.5557 92.2109C14.801 92.1302 15.0279 92.002 15.2237 91.8336C15.4194 91.6652 15.58 91.4599 15.6964 91.2294C15.8128 90.9989 15.8826 90.7477 15.902 90.4902V65.6275C15.902 65.1074 15.6954 64.6087 15.3277 64.241C14.9599 63.8732 14.4612 63.6667 13.9412 63.6667V63.7059ZM68.1569 1.47059C68.0767 1.16154 67.9222 0.876757 67.7069 0.640974C67.4917 0.405191 67.2221 0.225545 66.9216 0.117647C66.6227 0.0109929 66.3024 -0.0215312 65.9882 0.0228676C65.674 0.0672664 65.3753 0.187261 65.1176 0.372549C63.1569 1.80392 53.3529 9.15686 51.7255 13.549C51.2708 14.8235 51.0848 16.1782 51.1793 17.528C51.2738 18.8779 51.6467 20.1935 52.2745 21.3922C49.5833 25.4715 47.2228 29.7597 45.2157 34.2157V1.96078C45.2157 1.44075 45.0091 0.942019 44.6414 0.5743C44.2737 0.206582 43.7749 0 43.2549 0L27.5686 0C27.0486 0 26.5499 0.206582 26.1821 0.5743C25.8144 0.942019 25.6078 1.44075 25.6078 1.96078V40.2353H25.2941L21.9608 27.2549L18.9412 15.9216C18.949 15.8564 18.949 15.7906 18.9412 15.7255V15.6863V15.549V15.4314L6.94118 1.5098C6.70464 1.23372 6.39601 1.02884 6.04976 0.91804C5.7035 0.807238 5.33326 0.794883 4.98039 0.882353C4.62419 0.974387 4.30107 1.16478 4.04795 1.43176C3.79484 1.69875 3.62194 2.03156 3.54902 2.39216L-3.0268e-08 20.0784C-3.0268e-08 20.0784 -3.0268e-08 20.1961 -3.0268e-08 20.2353V20.5294C-0.00952147 20.5747 -0.00952147 20.6214 -3.0268e-08 20.6667C-0.00923388 20.7383 -0.00923388 20.8108 -3.0268e-08 20.8824L3.03922 32.1765L5 40.2157C3.81575 40.4343 2.72352 41.0009 1.86275 41.8431C0.773105 42.9444 0.161923 44.4311 0.161923 45.9804C0.161923 47.5296 0.773105 49.0163 1.86275 50.1176C2.4718 50.7426 3.21652 51.2189 4.03922 51.5098V90.1961C4.03922 92.7962 5.07213 95.2899 6.91072 97.1285C8.74931 98.9671 11.243 100 13.8431 100H53.0392C55.6394 100 58.133 98.9671 59.9716 97.1285C61.8102 95.2899 62.8431 92.7962 62.8431 90.1961V51.6274C63.9874 51.2229 64.9784 50.4744 65.6805 49.4844C66.3826 48.4945 66.7613 47.3117 66.7647 46.098C66.7623 44.7337 66.2857 43.4126 65.4164 42.361C64.5472 41.3093 63.3395 40.5926 62 40.3333C63.1987 35.6194 64.0377 30.8213 64.5098 25.9804C65.8062 25.4752 66.9803 24.6999 67.954 23.706C68.9276 22.7121 69.6786 21.5223 70.1569 20.2157C71.7059 15.8235 68.7647 3.92157 68.1569 1.47059ZM54.902 24.5686C56.5091 25.8286 58.4697 26.5552 60.5098 26.6471C59.9815 31.2295 59.1363 35.7697 57.9804 40.2353H46.8039C49.0864 34.8079 51.7942 29.5694 54.902 24.5686ZM29.5882 3.92157H41.3529V8.39216H37.4314C36.9113 8.39216 36.4126 8.59874 36.0449 8.96646C35.6772 9.33418 35.4706 9.83291 35.4706 10.3529C35.4706 10.873 35.6772 11.3717 36.0449 11.7394C36.4126 12.1071 36.9113 12.3137 37.4314 12.3137H41.3529V16.2353H37.4314C37.1739 16.2095 36.9138 16.2348 36.6661 16.3095C36.4183 16.3843 36.1877 16.5071 35.9875 16.6709C35.7872 16.8348 35.6211 17.0365 35.4988 17.2646C35.3765 17.4926 35.3003 17.7425 35.2745 18C35.2488 18.2575 35.274 18.5175 35.3487 18.7653C35.4235 19.013 35.5463 19.2436 35.7102 19.4439C35.874 19.6442 36.0757 19.8102 36.3038 19.9326C36.5318 20.0549 36.7817 20.1311 37.0392 20.1569H41.3333V24.0784H37.4118C36.8917 24.0264 36.3723 24.1831 35.9678 24.5141C35.5634 24.845 35.3069 25.3231 35.2549 25.8431C35.2029 26.3632 35.3596 26.8826 35.6906 27.2871C36.0215 27.6915 36.4996 27.948 37.0196 28H41.3137V31.9216H37.3922C37.1347 31.8958 36.8746 31.921 36.6269 31.9958C36.3791 32.0705 36.1485 32.1934 35.9482 32.3572C35.748 32.5211 35.5819 32.7228 35.4596 32.9508C35.3373 33.1789 35.261 33.4288 35.2353 33.6863C35.2095 33.9438 35.2348 34.2038 35.3095 34.4516C35.3843 34.6993 35.5071 34.9299 35.6709 35.1302C35.8348 35.3305 36.0365 35.4965 36.2646 35.6188C36.4926 35.7412 36.7425 35.8174 37 35.8431H41.2941V40.3333H29.5294V3.92157H29.5882ZM6.58823 7.11765L14.6078 16.5686C13.3916 18.0882 11.7219 19.1796 9.84204 19.684C7.96218 20.1883 5.97039 20.0792 4.15686 19.3725L6.58823 7.11765ZM4.82353 23.6275C5.69436 23.8081 6.58123 23.9 7.47059 23.902C8.6066 23.9345 9.74162 23.8091 10.8431 23.5294C12.8285 22.9989 14.6532 21.9889 16.1569 20.5882L18.1176 28.2353L21.2157 40.2353H9.13725L6.88235 31.3725L4.82353 23.6275ZM58.9216 90.1961C58.9216 91.7562 58.3018 93.2524 57.1987 94.3555C56.0955 95.4587 54.5993 96.0784 53.0392 96.0784H13.9412C12.3811 96.0784 10.8849 95.4587 9.78173 94.3555C8.67857 93.2524 8.05882 91.7562 8.05882 90.1961V51.9608H58.9216V90.1961ZM62.8431 46.0588C62.841 46.5732 62.6368 47.0662 62.2745 47.4314C61.9093 47.7936 61.4164 47.9978 60.902 48H6.11765C5.59761 48 5.09888 47.7934 4.73116 47.4257C4.36344 47.058 4.15686 46.5592 4.15686 46.0392C4.16412 45.5316 4.36796 45.0466 4.72549 44.6863C5.09071 44.324 5.58365 44.1198 6.09804 44.1176H60.7843C61.3043 44.1176 61.8031 44.3242 62.1708 44.6919C62.5385 45.0597 62.7451 45.5584 62.7451 46.0784L62.8431 46.0588ZM66.451 18.8824C66.1119 19.8108 65.5443 20.6388 64.8006 21.29C64.0569 21.9411 63.1612 22.3944 62.1961 22.6078C61.1057 22.8416 59.9718 22.7669 58.9216 22.3922C57.849 22.0139 56.9091 21.3328 56.2157 20.4314C55.6436 19.6513 55.2727 18.7422 55.1359 17.7845C54.9991 16.8269 55.1006 15.8502 55.4314 14.9412C56.1569 12.9804 60.9412 8.64706 65.0784 5.39216C66.1961 10.5686 67.1569 16.9412 66.4314 18.9412L66.451 18.8824Z" fill="url(#paint0_linear)"/>
    <defs>
        <linearGradient id="paint0_linear" x1="-3.04513e-08" y1="50" x2="70.5882" y2="50" gradientUnits="userSpaceOnUse">
            <stop stop-color="#FF007E"/>
            <stop offset="1" stop-color="#A8161A"/>
        </linearGradient>
    </defs>
</svg>
