<svg width="100" height="100" viewBox="0 0 100 100" fill="none" xmlns="http://www.w3.org/2000/svg">
    <g clip-path="url(#clip0)">
        <path fill-rule="evenodd" clip-rule="evenodd" d="M68.2852 41.2002C68.2913 41.152 68.2913 41.1032 68.2852 41.055L68.1884 40.813L68.0755 40.6517L67.9303 40.4581L67.769 40.3452C67.7079 40.3056 67.6535 40.2566 67.6077 40.2L50.9437 30.1984C50.6808 30.0484 50.3833 29.9696 50.0807 29.9696C49.778 29.9696 49.4805 30.0484 49.2176 30.1984L32.5536 40.2L32.3762 40.3452L32.2149 40.4581L32.0697 40.6517L31.9568 40.813C31.9138 40.8832 31.8812 40.9593 31.86 41.0388C31.8561 41.0925 31.8561 41.1465 31.86 41.2002C31.8365 41.3444 31.8365 41.4915 31.86 41.6357V58.3158C31.856 58.6028 31.9286 58.8857 32.0704 59.1352C32.2122 59.3847 32.418 59.5919 32.6666 59.7354L49.3305 69.737C49.4144 69.791 49.5073 69.8292 49.6048 69.8499H49.7177C50.0045 69.9145 50.302 69.9145 50.5888 69.8499H50.7017C50.7983 69.8264 50.8908 69.7883 50.976 69.737L67.6399 59.7354C67.8885 59.5919 68.0943 59.3847 68.2361 59.1352C68.3779 58.8857 68.4505 58.6028 68.4465 58.3158V41.6357C68.4098 41.4848 68.3557 41.3386 68.2852 41.2002ZM50.0081 33.5699L55.1057 36.6349L41.6841 44.7007L36.6511 41.6357L50.0081 33.5699ZM48.3949 65.3654L35.054 57.2995V44.5878L48.3949 52.6536V65.3654ZM50.0081 49.7015L44.9105 46.6365L58.3481 38.5707L63.4457 41.6357L50.0081 49.7015ZM65.0105 57.3641L51.6858 65.4299V52.6536L65.0105 44.5878V57.3641ZM51.347 0.612963C51.0521 0.262844 50.6312 0.0428712 50.1754 0.00060905C49.7195 -0.0416531 49.2654 0.0971909 48.9111 0.38712C48.8319 0.458316 48.7565 0.533705 48.6853 0.612963L43.6845 7.29146L46.3301 9.29178L48.3304 6.61393V19.9548H51.6696V6.61393L53.6699 9.29178L56.3317 7.29146L51.347 0.612963ZM53.6861 90.6598L51.6858 93.3215V79.9806H48.3465V93.3215L46.3301 90.6598L43.6845 92.6601L48.6853 99.3224C48.8114 99.5025 48.973 99.6549 49.1602 99.7702C49.3473 99.8855 49.5561 99.9614 49.7736 99.9931C49.9912 100.025 50.2129 100.012 50.4252 99.9547C50.6375 99.8976 50.8359 99.7977 51.0082 99.6612C51.1374 99.5658 51.2516 99.4516 51.347 99.3224L56.3478 92.6601L53.6861 90.6598ZM48.3465 23.294H51.6858V26.6333H48.3465V23.294ZM48.3465 73.3021H51.6858V76.6414H48.3465V73.3021ZM20.0032 48.3142H6.6785L9.34022 46.2978L7.33989 43.636L0.677529 48.6368C0.457939 48.7844 0.278014 48.9837 0.153606 49.2172C0.0291991 49.4507 -0.0358713 49.7112 -0.0358713 49.9758C-0.0358713 50.2403 0.0291991 50.5008 0.153606 50.7343C0.278014 50.9678 0.457939 51.1671 0.677529 51.3147L7.33989 56.3155L9.34022 53.6377L6.6785 51.6373H20.0032V48.3142ZM99.6774 48.9756C99.5782 48.855 99.4703 48.7418 99.3547 48.6368L92.6762 43.636L90.6759 46.2978L93.3538 48.3142H80.0129V51.6373H93.3538L90.6759 53.6377L92.6762 56.3155L99.3547 51.3147C99.536 51.1873 99.689 51.0239 99.8044 50.8348C99.9197 50.6457 99.9948 50.4348 100.025 50.2154C100.055 49.9959 100.04 49.7726 99.9803 49.5593C99.9205 49.346 99.8173 49.1473 99.6774 48.9756ZM23.3425 48.3142H26.6817V51.6373H23.3425V48.3142ZM73.3505 48.3142H76.6898V51.6373H73.3505V48.3142ZM29.9726 27.5689L20.5194 18.1481L23.7458 18.6159L24.2297 15.3089L15.9703 14.1313C15.7595 14.1066 15.5458 14.1237 15.3416 14.1817C15.1374 14.2397 14.9467 14.3375 14.7803 14.4694C14.614 14.6012 14.4753 14.7647 14.3722 14.9502C14.2692 15.1358 14.2037 15.3399 14.1797 15.5509C14.1476 15.7106 14.1476 15.8751 14.1797 16.0348L15.3573 24.2942L18.5836 23.8103L18.0997 20.5839L27.5367 30.0048L29.9726 27.5689ZM85.8526 83.9329L84.6749 75.6735L81.368 76.1574L81.8358 79.3837L72.4149 69.9629L70.0597 72.3181L79.4806 81.739L76.2542 81.2711L75.7703 84.4975L84.0297 85.6751H84.2555C84.6834 85.6751 85.0937 85.5051 85.3962 85.2026C85.6987 84.9001 85.8687 84.4898 85.8687 84.0619C85.8755 83.9868 85.8755 83.9112 85.8687 83.8361L85.8526 83.9329ZM29.9726 32.3116L32.3439 29.9403L34.6991 32.3116L32.3439 34.6668L29.9726 32.3116ZM65.3331 67.656L67.6883 65.3008L70.0597 67.656L67.6883 70.0113L65.3331 67.656ZM20.5194 81.8035L29.9403 72.3826L27.6174 70.0113L18.1965 79.4483L18.6643 76.2219L15.438 75.7541L14.2604 84.0135C14.2334 84.2256 14.2488 84.4409 14.3058 84.647C14.3627 84.8531 14.4601 85.0458 14.5922 85.2139C14.7242 85.382 14.8884 85.5222 15.0752 85.6263C15.2619 85.7304 15.4675 85.7963 15.6799 85.8203H16.1478L24.391 84.6427L23.9232 81.4163L20.5194 81.8035ZM85.3686 14.5991C85.189 14.4148 84.9678 14.2762 84.7237 14.1948C84.4795 14.1134 84.2194 14.0916 83.9652 14.1313L75.7058 15.3089L76.1736 18.6159L79.3999 18.1481L69.979 27.5689L72.3342 29.9241L81.8196 20.5033L81.3518 23.7296L84.5782 24.2135L85.7719 15.9541C85.802 15.6964 85.7742 15.4352 85.6905 15.1896C85.6068 14.944 85.4692 14.7202 85.288 14.5346L85.3686 14.5991ZM29.9726 67.656L32.3439 65.3008L34.6991 67.656L32.3439 70.0113L29.9726 67.656ZM65.3331 32.2794L67.6883 29.9241L70.0597 32.2794L67.6883 34.6346L65.3331 32.2794Z" fill="url(#paint0_linear)"/>
    </g>
    <defs>
        <linearGradient id="paint0_linear" x1="-2.63596e-08" y1="49.9919" x2="100.016" y2="49.9919" gradientUnits="userSpaceOnUse">
            <stop stop-color="#FF007E"/>
            <stop offset="1" stop-color="#A8161A"/>
        </linearGradient>
        <clipPath id="clip0">
            <rect width="100" height="100" fill="white"/>
        </clipPath>
    </defs>
</svg>

