<svg width="100" height="100" viewBox="0 0 100 100" fill="none" xmlns="http://www.w3.org/2000/svg">
    <path fill-rule="evenodd" clip-rule="evenodd" d="M93.5472 22.7358V15.4528L78.0755 0H32.2642V22.6415H8.0566C5.93114 22.6464 3.89329 23.489 2.38506 24.9866C0.876839 26.4843 0.0198586 28.5161 0 30.6415L0 82.2641C0.00498301 84.3994 0.855401 86.4457 2.36523 87.9555C3.87506 89.4654 5.92139 90.3158 8.0566 90.3208H27.4151V96.7736H20.9623V100H79.0377V96.7736H72.5849V90.3208H91.9434C94.0786 90.3158 96.1249 89.4654 97.6348 87.9555C99.1446 86.4457 99.995 84.3994 100 82.2641V30.6415C99.9988 28.7823 99.3562 26.9805 98.1806 25.5402C97.005 24.1 95.3684 23.1094 93.5472 22.7358ZM77.3585 3.88679L89.6038 16.1321H77.3585V3.88679ZM35.4906 3.22642H74.1887V19.3585H90.3208V70.9623H35.4906V3.22642ZM69.4528 96.7736H30.6415V90.3208H69.3585L69.4528 96.7736ZM96.7736 82.2641C96.7736 83.5452 96.2647 84.7738 95.3588 85.6796C94.453 86.5854 93.2244 87.0943 91.9434 87.0943H8.0566C6.77556 87.0943 5.54698 86.5854 4.64114 85.6796C3.73531 84.7738 3.22642 83.5452 3.22642 82.2641V80.6415H96.7736V82.2641ZM96.7736 77.4151H3.22642V30.6415C3.22642 29.3605 3.73531 28.1319 4.64114 27.226C5.54698 26.3202 6.77556 25.8113 8.0566 25.8113H32.2642V74.1887H93.5472V26.0943C94.4875 26.4282 95.3019 27.0441 95.8793 27.8578C96.4567 28.6716 96.769 29.6437 96.7736 30.6415V77.3585V77.4151ZM29.0377 40.3208C29.0377 38.0817 28.3738 35.893 27.1298 34.0313C25.8859 32.1696 24.1178 30.7186 22.0492 29.8617C19.9806 29.0049 17.7044 28.7807 15.5084 29.2175C13.3124 29.6543 11.2952 30.7325 9.712 32.3158C8.12876 33.899 7.05057 35.9162 6.61375 38.1122C6.17694 40.3082 6.40113 42.5844 7.25797 44.653C8.11481 46.7216 9.56582 48.4897 11.4275 49.7336C13.2892 50.9776 15.4779 51.6415 17.717 51.6415C20.7194 51.6415 23.5989 50.4488 25.722 48.3257C27.845 46.2027 29.0377 43.3232 29.0377 40.3208ZM19.3585 37.0943C19.3686 37.3056 19.3364 37.5167 19.2636 37.7153C19.1909 37.9139 19.0791 38.096 18.9349 38.2507C18.7907 38.4054 18.6171 38.5297 18.4241 38.6163C18.2311 38.7029 18.0228 38.7499 17.8113 38.7547C17.5991 38.7648 17.387 38.7327 17.1874 38.6602C16.9877 38.5877 16.8044 38.4762 16.6482 38.3322C16.492 38.1883 16.3659 38.0148 16.2773 37.8217C16.1887 37.6286 16.1393 37.4199 16.1321 37.2075V37.0943C16.1752 36.6966 16.3637 36.3287 16.6614 36.0615C16.9592 35.7942 17.3452 35.6464 17.7453 35.6464C18.1454 35.6464 18.5314 35.7942 18.8291 36.0615C19.1269 36.3287 19.3154 36.6966 19.3585 37.0943ZM17.7547 48.4151C16.664 48.4149 15.585 48.1901 14.5849 47.7547C14.7345 47.027 15.1306 46.3731 15.7064 45.9036C16.2822 45.4341 17.0023 45.1777 17.7453 45.1777C18.4882 45.1777 19.2084 45.4341 19.7842 45.9036C20.36 46.3731 20.7561 47.027 20.9057 47.7547C19.9056 48.1901 18.8266 48.4149 17.7358 48.4151H17.7547ZM17.7547 41.9623C16.5114 41.9555 15.2926 42.308 14.2449 42.9774C13.1973 43.6469 12.3653 44.6048 11.8491 45.7358C10.8308 44.6546 10.1337 43.3114 9.83569 41.8564C9.53769 40.4014 9.65059 38.8922 10.1618 37.4977C10.6729 36.1033 11.5622 34.8787 12.7299 33.961C13.8977 33.0433 15.2978 32.4689 16.7736 32.3019C15.5926 32.5361 14.541 33.2013 13.8234 34.1681C13.1058 35.1349 12.7735 36.334 12.8911 37.5323C13.0088 38.7305 13.5681 39.8421 14.4601 40.6508C15.3521 41.4594 16.513 41.9073 17.717 41.9073C18.921 41.9073 20.0819 41.4594 20.9739 40.6508C21.8659 39.8421 22.4251 38.7305 22.5428 37.5323C22.6605 36.334 22.3282 35.1349 21.6106 34.1681C20.893 33.2013 19.8414 32.5361 18.6604 32.3019C20.1325 32.4754 21.5277 33.0536 22.691 33.9722C23.8544 34.8909 24.7403 36.1139 25.2505 37.5057C25.7607 38.8974 25.8751 40.4034 25.5811 41.8562C25.2871 43.3091 24.5961 44.652 23.5849 45.7358C23.0687 44.6048 22.2367 43.6469 21.189 42.9774C20.1413 42.308 18.9225 41.9555 17.6792 41.9623H17.7547ZM6.43396 62.9245C6.43396 65.1636 7.09791 67.3523 8.34185 69.214C9.58579 71.0757 11.3539 72.5267 13.4225 73.3835C15.491 74.2404 17.7673 74.4646 19.9633 74.0278C22.1593 73.5909 24.1765 72.5127 25.7597 70.9295C27.3429 69.3463 28.4211 67.3291 28.8579 65.1331C29.2948 62.9371 29.0706 60.6609 28.2137 58.5923C27.3569 56.5237 25.9059 54.7556 24.0442 53.5117C22.1825 52.2677 19.9937 51.6038 17.7547 51.6038C14.7523 51.6038 11.8728 52.7965 9.74973 54.9195C7.62668 57.0426 6.43396 59.9221 6.43396 62.9245ZM17.7547 70.9811C16.6653 70.9869 15.5863 70.7686 14.5849 70.3396C14.7345 69.6119 15.1306 68.9581 15.7064 68.4885C16.2822 68.019 17.0023 67.7626 17.7453 67.7626C18.4882 67.7626 19.2084 68.019 19.7842 68.4885C20.36 68.9581 20.7561 69.6119 20.9057 70.3396C19.9042 70.7686 18.8253 70.9869 17.7358 70.9811H17.7547ZM19.3585 59.6604C19.3585 59.9821 19.2628 60.2966 19.0837 60.5638C18.9045 60.831 18.65 61.039 18.3524 61.1612C18.0548 61.2835 17.7275 61.3145 17.4123 61.2503C17.097 61.1862 16.8079 61.0297 16.5818 60.8009C16.3556 60.5721 16.2026 60.2812 16.1421 59.9652C16.0817 59.6492 16.1165 59.3224 16.2422 59.0262C16.3679 58.7301 16.5788 58.478 16.8481 58.302C17.1175 58.126 17.433 58.034 17.7547 58.0377C18.1801 58.0377 18.588 58.2067 18.8888 58.5075C19.1895 58.8082 19.3585 59.2162 19.3585 59.6415V59.6604ZM16.7736 54.9434C15.5926 55.1776 14.541 55.8429 13.8234 56.8096C13.1058 57.7764 12.7735 58.9755 12.8911 60.1738C13.0088 61.372 13.5681 62.4836 14.4601 63.2923C15.3521 64.1009 16.513 64.5489 17.717 64.5489C18.921 64.5489 20.0819 64.1009 20.9739 63.2923C21.8659 62.4836 22.4251 61.372 22.5428 60.1738C22.6605 58.9755 22.3282 57.7764 21.6106 56.8096C20.893 55.8429 19.8414 55.1776 18.6604 54.9434C20.1325 55.1169 21.5277 55.6951 22.691 56.6137C23.8544 57.5324 24.7403 58.7555 25.2505 60.1472C25.7607 61.539 25.8751 63.0449 25.5811 64.4977C25.2871 65.9506 24.5961 67.2935 23.5849 68.3774C23.0903 67.2235 22.268 66.2401 21.2199 65.5491C20.1719 64.858 18.9441 64.4897 17.6887 64.4897C16.4333 64.4897 15.2055 64.858 14.1574 65.5491C13.1093 66.2401 12.2871 67.2235 11.7925 68.3774C10.7742 67.2962 10.0771 65.9529 9.77909 64.4979C9.48109 63.0429 9.59399 61.5337 10.1052 60.1393C10.6163 58.7448 11.5056 57.5202 12.6733 56.6025C13.8411 55.6849 15.2412 55.1104 16.717 54.9434H16.7736ZM58.0755 12.7736V9.67924H41.9434V25.8113H58.0755V16.7358L63.8491 12.6038L61.9623 9.98113L58.0755 12.7736ZM54.8491 15.0943L51.7925 17.2453L49.5283 14.9811L47.1698 17.2642L51.3585 21.4528L54.7547 19.0377V22.6415H45.1509V12.9057H54.8302V15.0943H54.8491ZM58.0755 32.0755V29.0377H41.9434V45.1698H58.0755V36.0755L63.8491 31.9623L61.9623 29.3396L58.0755 32.0755ZM54.8491 34.3774L51.7925 36.6038L49.5283 34.3396L47.1698 36.6226L51.3585 40.8113L54.7547 38.3962V41.9434H45.1509V32.2642H54.8302V34.4151L54.8491 34.3774ZM58.0755 51.3585V48.3962H41.9434V64.5094H58.0755V55.434L63.8491 51.3019L61.9623 48.6981L58.0755 51.3585ZM54.8491 53.7736L51.7925 55.9623L49.5283 53.6981L47.1698 55.9811L51.3585 60.1698L54.7547 57.7358V61.283H45.1509V51.6038H54.8302V53.7736H54.8491ZM64.5283 22.6415H83.8679V25.8679H64.5094V22.6415H64.5283ZM64.5283 42H83.8679V45.2264H64.5094V41.9434L64.5283 42ZM64.5283 61.3396H83.8679V64.566H64.5094V61.283L64.5283 61.3396ZM64.5283 54.8868H83.8679V58.1132H64.5094V54.8302L64.5283 54.8868ZM64.5283 35.5472H83.8679V38.7736H64.5094V35.4906L64.5283 35.5472ZM64.5283 16.1887H70.9811V19.4151H64.5283V16.1887Z" fill="url(#paint0_linear)"/>
    <defs>
        <linearGradient id="paint0_linear" x1="0" y1="50" x2="100" y2="50" gradientUnits="userSpaceOnUse">
            <stop stop-color="#FF007E"/>
            <stop offset="1" stop-color="#A8161A"/>
        </linearGradient>
    </defs>
</svg>
