<svg width="100" height="100" viewBox="0 0 100 100" fill="none" xmlns="http://www.w3.org/2000/svg">
    <g clip-path="url(#clip0)">
        <path d="M50 0C22.3861 0 0 22.3861 0 50C0 77.6139 22.3861 100 50 100C51.5064 100 53.007 99.9324 54.5003 99.7982C55.8887 99.6737 57.2648 99.4832 58.6304 99.2448L59.1553 99.152C84.5435 94.4141 102.147 71.1206 99.7721 45.4028C97.3975 19.6851 75.8268 0.00813802 50 0V0ZM45.9831 96.4901H45.8651C44.5687 96.3753 43.2821 96.202 42.0068 95.9798C41.9336 95.9668 41.8604 95.9587 41.7887 95.9448C40.542 95.7218 39.3083 95.4451 38.0868 95.1221L37.7913 95.0464C36.5999 94.7233 35.4216 94.3481 34.2603 93.9315C34.1398 93.8883 34.0186 93.8501 33.8981 93.8053C32.7596 93.387 31.6414 92.9183 30.5404 92.4113C30.4036 92.3503 30.2669 92.2917 30.1302 92.2266C29.0503 91.7269 27.9915 91.1637 26.9531 90.5713C26.8066 90.4883 26.6585 90.4053 26.512 90.3231C25.4899 89.7266 24.4914 89.0869 23.5116 88.4115C23.3634 88.3081 23.2137 88.208 23.0664 88.1047C22.1037 87.4219 21.1654 86.6968 20.2515 85.9383L20 85.7186V71.6667C20.0122 61.5462 28.2129 53.3455 38.3333 53.3333H61.6667C71.7871 53.3455 79.9878 61.5462 80 71.6667V85.7202L79.7786 85.9049C78.8468 86.6829 77.8906 87.4186 76.9084 88.1136C76.7782 88.2048 76.6463 88.2918 76.5169 88.3813C75.5257 89.0698 74.5101 89.7176 73.4701 90.3263C73.3398 90.402 73.2064 90.4736 73.077 90.5485C72.0231 91.1483 70.9513 91.7147 69.8584 92.2249C69.7331 92.2835 69.6069 92.3381 69.48 92.3918C68.37 92.9036 67.242 93.3748 66.0954 93.7964C65.9814 93.8387 65.8667 93.8753 65.7617 93.9152C64.5947 94.3335 63.4115 94.7119 62.2135 95.0366L61.9263 95.1082C60.7031 95.4313 59.4686 95.7096 58.2202 95.9334C58.1486 95.9464 58.077 95.9554 58.0054 95.9668C56.7285 96.1898 55.4403 96.3631 54.1431 96.4787H54.0251C52.6921 96.5934 51.3582 96.6553 50.0081 96.6553C48.658 96.6553 47.3136 96.6048 45.9831 96.4901ZM83.3333 82.6302V71.6667C83.3195 59.7062 73.6271 50.0138 61.6667 50H38.3333C26.3729 50.0138 16.6805 59.7062 16.6667 71.6667V82.6286C-1.28418 64.3074 -1.08398 34.9333 17.1143 16.8579C35.3125 -1.21663 64.6875 -1.21663 82.8857 16.8579C101.084 34.9333 101.284 64.3074 83.3333 82.6286V82.6302Z" fill="url(#paint0_linear)"/>
        <path d="M50 13.3334C40.7951 13.3334 33.3333 20.7951 33.3333 30C33.3333 39.205 40.7951 46.6667 50 46.6667C59.2049 46.6667 66.6666 39.205 66.6666 30C66.6569 20.7992 59.2008 13.3431 50 13.3334ZM50 43.3334C42.6359 43.3334 36.6666 37.3641 36.6666 30C36.6666 22.6359 42.6359 16.6667 50 16.6667C57.3641 16.6667 63.3333 22.6359 63.3333 30C63.3252 37.3601 57.36 43.3252 50 43.3334Z" fill="url(#paint1_linear)"/>
    </g>
    <defs>
        <linearGradient id="paint0_linear" x1="0" y1="50" x2="99.9865" y2="50" gradientUnits="userSpaceOnUse">
            <stop stop-color="#FF007E"/>
            <stop offset="1" stop-color="#A8161A"/>
        </linearGradient>
        <linearGradient id="paint1_linear" x1="33.3333" y1="30" x2="66.6666" y2="30" gradientUnits="userSpaceOnUse">
            <stop stop-color="#FF007E"/>
            <stop offset="1" stop-color="#A8161A"/>
        </linearGradient>
        <clipPath id="clip0">
            <rect width="100" height="100" fill="white"/>
        </clipPath>
    </defs>
</svg>
