<svg id="Слой_1" xmlns="http://www.w3.org/2000/svg" viewBox="0 0 180.5 61.4"><style>.st0{fill:#ffe300}.st1{fill:#00011c}</style><path class="st1" d="M9.8 0H0v11.5h9.8c10.6 0 19.2 8.6 19.2 19.2S20.4 49.9 9.8 49.9H0v11.5h9.8c16.9 0 31.1-12.4 31.1-30.7C40.8 12.2 26.7 0 9.8 0m24.8 49.9v11.5h11.5V49.9H34.6zm115.2-19.2l22.6-22.6V0h-8.5l-26.4 26.4V0H34.7v11.5h21.6v49.9h12.1V11.5h21.7c-4 5.1-6.4 11.6-6.4 19.2 0 18.3 14.1 30.7 31.1 30.7h22.6V35l26.4 26.4h16.7l-30.7-30.7zm-24.5 19.2h-10.5c-8.6 0-16-5.7-18.4-13.6h17V25.1h-17c2.4-7.9 9.7-13.6 18.4-13.6h10.5v38.4z"/><path class="st0" d="M9.8 11.5H0v38.4h9.8c10.6 0 19.2-8.6 19.2-19.2-.1-10.6-8.7-19.2-19.2-19.2"/></svg>